<svg xmlns="http://www.w3.org/2000/svg" viewBox="0 0 32 32" fill="none">
  <defs>
    <linearGradient id="g" x1="0" y1="0" x2="32" y2="32" gradientUnits="userSpaceOnUse">
      <stop offset="0%" stop-color="#4ab0de"/>
      <stop offset="100%" stop-color="#8b5cf6"/>
    </linearGradient>
  </defs>
  <rect width="32" height="32" rx="8" fill="#0a0a1a"/>
  <path d="M16 4L6 10v8c0 5.5 4.3 10.6 10 12 5.7-1.4 10-6.5 10-12v-8L16 4z" fill="url(#g)" opacity="0.9"/>
  <path d="M16 7l-7.5 4.5v6c0 4.1 3.2 8 7.5 9.2 4.3-1.2 7.5-5.1 7.5-9.2v-6L16 7z" fill="#0a0a1a" opacity="0.6"/>
  <path d="M14.5 18.5l-2.5-2.5 1.4-1.4 1.1 1.1 3.1-3.1 1.4 1.4-4.5 4.5z" fill="#fff"/>
</svg>
